{"title":"Dj Robert Georgescu Ft. Lara - Beside You [Music Video] 1080p [S","uid":10005302,"size":63899939,"categoryP":"video","categoryS":"music_videos","magnet":"?xt=urn:btih:cb78abb0a0c801a11314863b09e9d46eb2f8ba55&amp;dn=Dj+Robert+Georgescu+Ft.+Lara+-+Beside+You+%5BMusic+Video%5D+1080p+%5BS&amp;tr=udp%3A%2F%2Ftracker.openbittorrent.com%3A80&amp;tr=udp%3A%2F%2Fopen.demonii.com%3A1337&amp;tr=udp%3A%2F%2Ftracker.coppersurfer.tk%3A6969&amp;tr=udp%3A%2F%2Fexodus.desync.com%3A6969","seeders":1,"leechers":2,"uploader":"Sbyky","files":1,"time":1398042570,"description":"\n\nGeneral\nComplete name                            : Dj Robert Georgescu Ft. Lara - Beside You [Music Video] 1080p [Sbyky].MP4\nFormat                                   : MPEG-4\nFormat profile                           : Base Media\nCodec ID                                 : isom\nFile size                                : 60.9 MiB\nDuration                                 : 3mn 16s\nOverall bit rate mode                    : Variable\nOverall bit rate                         : 2 604 Kbps\nEncoded date                             : UTC 2014-03-07 11:10:34\nTagged date                              : UTC 2014-03-07 11:10:34\n\nVideo\nID                                       : 1\nFormat                                   : AVC\nFormat/Info                              : Advanced Video Codec\nFormat profile                           : &lt;a class=&quot;__cf_email__&quot; href=&quot;/cdn-cgi/l/email-protection&quot; data-cfemail=&quot;a2eacbc5cae2ee968c92&quot;&gt;[email&amp;#160;protected]&lt;/a&gt;&lt;script cf-hash='f9e31' type=&quot;text/javascript&quot;&gt;\n/* &lt;![CDATA[ */!function(){try{var t=&quot;currentScript&quot;in document?document.currentScript:function(){for(var t=document.getElementsByTagName(&quot;script&quot;),e=t.length;e--;)if(t[e].getAttribute(&quot;cf-hash&quot;))return t[e]}();if(t&amp;&amp;t.previousSibling){var e,r,n,i,c=t.previousSibling,a=c.getAttribute(&quot;data-cfemail&quot;);if(a){for(e=&quot;&quot;,r=parseInt(a.substr(0,2),16),n=2;a.length-n;n+=2)i=parseInt(a.substr(n,2),16)^r,e+=String.fromCharCode(i);e=document.createTextNode(e),c.parentNode.replaceChild(e,c)}}}catch(u){}}();/* ]]&gt; */&lt;/script&gt;\nFormat settings, CABAC                   : Yes\nFormat settings, ReFrames                : 3 frames\nCodec ID                                 : avc1\nCodec ID/Info                            : Advanced Video Coding\nDuration                                 : 3mn 16s\nDuration_LastFrame                       : -39ms\nBit rate                                 : 2 477 Kbps\nWidth                                    : 1 920 pixels\nHeight                                   : 1 080 pixels\nDisplay aspect ratio                     : 16:9\nFrame rate mode                          : Constant\nFrame rate                               : 25.000 fps\nColor space                              : YUV\nChroma subsampling                       : 4:2:0\nBit depth                                : 8 bits\nScan type                                : Progressive\nBits/(Pixel*Frame)                       : 0.048\nStream size                              : 57.9 MiB (95%)\nEncoded date                             : UTC 2014-03-07 11:10:34\nTagged date                              : UTC 2014-03-07 11:10:34\n\nAudio\nID                                       : 2\nFormat                                   : AAC\nFormat/Info                              : Advanced Audio Codec\nFormat profile                           : LC\nCodec ID                                 : 40\nDuration                                 : 3mn 16s\nBit rate mode                            : Variable\nBit rate                                 : 126 Kbps\nChannel(s)                               : 2 channels\nChannel positions                        : Front: L R\nSampling rate                            : 44.1 KHz\nCompression mode                         : Lossy\nStream size                              : 2.94 MiB (5%)\nEncoded date                             : UTC 2014-03-07 11:17:40\nTagged date                              : UTC 2014-03-07 11:17:40\n\nShared By Sbyky\n","torrent":{"xt":"urn:btih:cb78abb0a0c801a11314863b09e9d46eb2f8ba55","amp;dn":"Dj+Robert+Georgescu+Ft.+Lara+-+Beside+You+%5BMusic+Video%5D+1080p+%5BS","amp;tr":["udp%3A%2F%2Ftracker.openbittorrent.com%3A80","udp%3A%2F%2Fopen.demonii.com%3A1337","udp%3A%2F%2Ftracker.coppersurfer.tk%3A6969","udp%3A%2F%2Fexodus.desync.com%3A6969"],"infoHash":"cb78abb0a0c801a11314863b09e9d46eb2f8ba55","infoHashBuffer":{"type":"Buffer","data":[203,120,171,176,160,200,1,161,19,20,134,59,9,233,212,110,178,248,186,85]},"announce":[],"urlList":[]}}